<mxfile host="Electron" modified="2024-06-03T22:53:17.815Z" agent="Mozilla/5.0 (Windows NT 10.0; Win64; x64) AppleWebKit/537.36 (KHTML, like Gecko) draw.io/23.1.5 Chrome/120.0.6099.109 Electron/28.1.0 Safari/537.36" etag="bsdO3vAdErRji0lPYJ6o" version="23.1.5" type="device">
  <diagram name="Страница — 1" id="gqC8wOZqmYMfNbnZB6CN">
    <mxGraphModel dx="1434" dy="844" grid="1" gridSize="10" guides="1" tooltips="1" connect="1" arrows="1" fold="1" page="1" pageScale="1" pageWidth="827" pageHeight="1169" math="0" shadow="0">
      <root>
        <mxCell id="0" />
        <mxCell id="1" parent="0" />
        <mxCell id="Ffj2G7Qw7KZ_4bi6Vjsg-2" value="SearchController" style="swimlane;fontStyle=1;align=center;verticalAlign=top;childLayout=stackLayout;horizontal=1;startSize=26;horizontalStack=0;resizeParent=1;resizeParentMax=0;resizeLast=0;collapsible=1;marginBottom=0;whiteSpace=wrap;html=1;" vertex="1" parent="1">
          <mxGeometry x="330" y="340" width="160" height="34" as="geometry" />
        </mxCell>
        <mxCell id="Ffj2G7Qw7KZ_4bi6Vjsg-4" value="" style="line;strokeWidth=1;fillColor=none;align=left;verticalAlign=middle;spacingTop=-1;spacingLeft=3;spacingRight=3;rotatable=0;labelPosition=right;points=[];portConstraint=eastwest;strokeColor=inherit;" vertex="1" parent="Ffj2G7Qw7KZ_4bi6Vjsg-2">
          <mxGeometry y="26" width="160" height="8" as="geometry" />
        </mxCell>
        <mxCell id="Ffj2G7Qw7KZ_4bi6Vjsg-6" value="SearchQueriesCache" style="swimlane;fontStyle=1;align=center;verticalAlign=top;childLayout=stackLayout;horizontal=1;startSize=26;horizontalStack=0;resizeParent=1;resizeParentMax=0;resizeLast=0;collapsible=1;marginBottom=0;whiteSpace=wrap;html=1;" vertex="1" parent="1">
          <mxGeometry x="414" y="230" width="160" height="34" as="geometry" />
        </mxCell>
        <mxCell id="Ffj2G7Qw7KZ_4bi6Vjsg-7" value="" style="line;strokeWidth=1;fillColor=none;align=left;verticalAlign=middle;spacingTop=-1;spacingLeft=3;spacingRight=3;rotatable=0;labelPosition=right;points=[];portConstraint=eastwest;strokeColor=inherit;" vertex="1" parent="Ffj2G7Qw7KZ_4bi6Vjsg-6">
          <mxGeometry y="26" width="160" height="8" as="geometry" />
        </mxCell>
        <mxCell id="Ffj2G7Qw7KZ_4bi6Vjsg-8" value="CORSMiddleware" style="swimlane;fontStyle=1;align=center;verticalAlign=top;childLayout=stackLayout;horizontal=1;startSize=26;horizontalStack=0;resizeParent=1;resizeParentMax=0;resizeLast=0;collapsible=1;marginBottom=0;whiteSpace=wrap;html=1;" vertex="1" parent="1">
          <mxGeometry x="90" y="340" width="160" height="34" as="geometry" />
        </mxCell>
        <mxCell id="Ffj2G7Qw7KZ_4bi6Vjsg-9" value="" style="line;strokeWidth=1;fillColor=none;align=left;verticalAlign=middle;spacingTop=-1;spacingLeft=3;spacingRight=3;rotatable=0;labelPosition=right;points=[];portConstraint=eastwest;strokeColor=inherit;" vertex="1" parent="Ffj2G7Qw7KZ_4bi6Vjsg-8">
          <mxGeometry y="26" width="160" height="8" as="geometry" />
        </mxCell>
        <mxCell id="Ffj2G7Qw7KZ_4bi6Vjsg-10" value="QueryParser" style="swimlane;fontStyle=1;align=center;verticalAlign=top;childLayout=stackLayout;horizontal=1;startSize=26;horizontalStack=0;resizeParent=1;resizeParentMax=0;resizeLast=0;collapsible=1;marginBottom=0;whiteSpace=wrap;html=1;" vertex="1" parent="1">
          <mxGeometry x="180" y="230" width="160" height="34" as="geometry" />
        </mxCell>
        <mxCell id="Ffj2G7Qw7KZ_4bi6Vjsg-11" value="" style="line;strokeWidth=1;fillColor=none;align=left;verticalAlign=middle;spacingTop=-1;spacingLeft=3;spacingRight=3;rotatable=0;labelPosition=right;points=[];portConstraint=eastwest;strokeColor=inherit;" vertex="1" parent="Ffj2G7Qw7KZ_4bi6Vjsg-10">
          <mxGeometry y="26" width="160" height="8" as="geometry" />
        </mxCell>
        <mxCell id="Ffj2G7Qw7KZ_4bi6Vjsg-12" value="RelevanceEstimator" style="swimlane;fontStyle=1;align=center;verticalAlign=top;childLayout=stackLayout;horizontal=1;startSize=26;horizontalStack=0;resizeParent=1;resizeParentMax=0;resizeLast=0;collapsible=1;marginBottom=0;whiteSpace=wrap;html=1;" vertex="1" parent="1">
          <mxGeometry x="180" y="130" width="160" height="34" as="geometry" />
        </mxCell>
        <mxCell id="Ffj2G7Qw7KZ_4bi6Vjsg-13" value="" style="line;strokeWidth=1;fillColor=none;align=left;verticalAlign=middle;spacingTop=-1;spacingLeft=3;spacingRight=3;rotatable=0;labelPosition=right;points=[];portConstraint=eastwest;strokeColor=inherit;" vertex="1" parent="Ffj2G7Qw7KZ_4bi6Vjsg-12">
          <mxGeometry y="26" width="160" height="8" as="geometry" />
        </mxCell>
        <mxCell id="Ffj2G7Qw7KZ_4bi6Vjsg-14" value="Config" style="swimlane;fontStyle=1;align=center;verticalAlign=top;childLayout=stackLayout;horizontal=1;startSize=26;horizontalStack=0;resizeParent=1;resizeParentMax=0;resizeLast=0;collapsible=1;marginBottom=0;whiteSpace=wrap;html=1;" vertex="1" parent="1">
          <mxGeometry x="590" y="414" width="160" height="34" as="geometry" />
        </mxCell>
        <mxCell id="Ffj2G7Qw7KZ_4bi6Vjsg-15" value="" style="line;strokeWidth=1;fillColor=none;align=left;verticalAlign=middle;spacingTop=-1;spacingLeft=3;spacingRight=3;rotatable=0;labelPosition=right;points=[];portConstraint=eastwest;strokeColor=inherit;" vertex="1" parent="Ffj2G7Qw7KZ_4bi6Vjsg-14">
          <mxGeometry y="26" width="160" height="8" as="geometry" />
        </mxCell>
        <mxCell id="Ffj2G7Qw7KZ_4bi6Vjsg-16" value="Logger" style="swimlane;fontStyle=1;align=center;verticalAlign=top;childLayout=stackLayout;horizontal=1;startSize=26;horizontalStack=0;resizeParent=1;resizeParentMax=0;resizeLast=0;collapsible=1;marginBottom=0;whiteSpace=wrap;html=1;" vertex="1" parent="1">
          <mxGeometry x="330" y="500" width="160" height="34" as="geometry" />
        </mxCell>
        <mxCell id="Ffj2G7Qw7KZ_4bi6Vjsg-17" value="" style="line;strokeWidth=1;fillColor=none;align=left;verticalAlign=middle;spacingTop=-1;spacingLeft=3;spacingRight=3;rotatable=0;labelPosition=right;points=[];portConstraint=eastwest;strokeColor=inherit;" vertex="1" parent="Ffj2G7Qw7KZ_4bi6Vjsg-16">
          <mxGeometry y="26" width="160" height="8" as="geometry" />
        </mxCell>
        <mxCell id="Ffj2G7Qw7KZ_4bi6Vjsg-18" value="ExternalBus" style="swimlane;fontStyle=1;align=center;verticalAlign=top;childLayout=stackLayout;horizontal=1;startSize=26;horizontalStack=0;resizeParent=1;resizeParentMax=0;resizeLast=0;collapsible=1;marginBottom=0;whiteSpace=wrap;html=1;" vertex="1" parent="1">
          <mxGeometry x="330" y="414" width="160" height="34" as="geometry" />
        </mxCell>
        <mxCell id="Ffj2G7Qw7KZ_4bi6Vjsg-19" value="" style="line;strokeWidth=1;fillColor=none;align=left;verticalAlign=middle;spacingTop=-1;spacingLeft=3;spacingRight=3;rotatable=0;labelPosition=right;points=[];portConstraint=eastwest;strokeColor=inherit;" vertex="1" parent="Ffj2G7Qw7KZ_4bi6Vjsg-18">
          <mxGeometry y="26" width="160" height="8" as="geometry" />
        </mxCell>
        <mxCell id="Ffj2G7Qw7KZ_4bi6Vjsg-22" value="" style="endArrow=diamondThin;endFill=0;endSize=24;html=1;rounded=0;exitX=0.225;exitY=1.125;exitDx=0;exitDy=0;exitPerimeter=0;entryX=0.75;entryY=0;entryDx=0;entryDy=0;" edge="1" parent="1" source="Ffj2G7Qw7KZ_4bi6Vjsg-7" target="Ffj2G7Qw7KZ_4bi6Vjsg-2">
          <mxGeometry width="160" relative="1" as="geometry">
            <mxPoint x="60" y="580" as="sourcePoint" />
            <mxPoint x="500" y="320" as="targetPoint" />
          </mxGeometry>
        </mxCell>
        <mxCell id="Ffj2G7Qw7KZ_4bi6Vjsg-25" value="Use" style="endArrow=open;endSize=12;dashed=1;html=1;rounded=0;entryX=1;entryY=0.5;entryDx=0;entryDy=0;exitX=0;exitY=0.5;exitDx=0;exitDy=0;" edge="1" parent="1" source="Ffj2G7Qw7KZ_4bi6Vjsg-2" target="Ffj2G7Qw7KZ_4bi6Vjsg-8">
          <mxGeometry width="160" relative="1" as="geometry">
            <mxPoint x="130" y="570" as="sourcePoint" />
            <mxPoint x="290" y="570" as="targetPoint" />
          </mxGeometry>
        </mxCell>
        <mxCell id="Ffj2G7Qw7KZ_4bi6Vjsg-28" value="" style="endArrow=none;html=1;rounded=0;exitX=0.319;exitY=0.059;exitDx=0;exitDy=0;exitPerimeter=0;" edge="1" parent="1" source="Ffj2G7Qw7KZ_4bi6Vjsg-2">
          <mxGeometry width="50" height="50" relative="1" as="geometry">
            <mxPoint x="320" y="610" as="sourcePoint" />
            <mxPoint x="381" y="120" as="targetPoint" />
          </mxGeometry>
        </mxCell>
        <mxCell id="Ffj2G7Qw7KZ_4bi6Vjsg-29" value="" style="endArrow=open;endFill=1;endSize=12;html=1;rounded=0;entryX=1;entryY=0.5;entryDx=0;entryDy=0;" edge="1" parent="1" target="Ffj2G7Qw7KZ_4bi6Vjsg-12">
          <mxGeometry width="160" relative="1" as="geometry">
            <mxPoint x="380" y="147" as="sourcePoint" />
            <mxPoint x="520" y="500" as="targetPoint" />
          </mxGeometry>
        </mxCell>
        <mxCell id="Ffj2G7Qw7KZ_4bi6Vjsg-30" value="" style="endArrow=open;endFill=1;endSize=12;html=1;rounded=0;entryX=1;entryY=0.5;entryDx=0;entryDy=0;" edge="1" parent="1" target="Ffj2G7Qw7KZ_4bi6Vjsg-10">
          <mxGeometry width="160" relative="1" as="geometry">
            <mxPoint x="380" y="247" as="sourcePoint" />
            <mxPoint x="640" y="440" as="targetPoint" />
          </mxGeometry>
        </mxCell>
        <mxCell id="Ffj2G7Qw7KZ_4bi6Vjsg-35" value="" style="endArrow=diamondThin;endFill=0;endSize=24;html=1;rounded=0;exitX=0.5;exitY=0;exitDx=0;exitDy=0;entryX=0.5;entryY=1;entryDx=0;entryDy=0;" edge="1" parent="1" source="Ffj2G7Qw7KZ_4bi6Vjsg-18" target="Ffj2G7Qw7KZ_4bi6Vjsg-2">
          <mxGeometry width="160" relative="1" as="geometry">
            <mxPoint x="600" y="590" as="sourcePoint" />
            <mxPoint x="760" y="590" as="targetPoint" />
          </mxGeometry>
        </mxCell>
        <mxCell id="Ffj2G7Qw7KZ_4bi6Vjsg-38" value="Use" style="endArrow=open;endSize=12;dashed=1;html=1;rounded=0;exitX=0;exitY=1;exitDx=0;exitDy=0;entryX=0;entryY=0.5;entryDx=0;entryDy=0;edgeStyle=orthogonalEdgeStyle;curved=1;" edge="1" parent="1" source="Ffj2G7Qw7KZ_4bi6Vjsg-2" target="Ffj2G7Qw7KZ_4bi6Vjsg-16">
          <mxGeometry width="160" relative="1" as="geometry">
            <mxPoint x="220" y="730" as="sourcePoint" />
            <mxPoint x="380" y="730" as="targetPoint" />
            <Array as="points">
              <mxPoint x="240" y="374" />
              <mxPoint x="240" y="517" />
            </Array>
          </mxGeometry>
        </mxCell>
        <mxCell id="Ffj2G7Qw7KZ_4bi6Vjsg-39" value="Use" style="endArrow=open;endSize=12;dashed=1;html=1;rounded=0;exitX=0.5;exitY=1;exitDx=0;exitDy=0;entryX=0.5;entryY=0;entryDx=0;entryDy=0;" edge="1" parent="1" source="Ffj2G7Qw7KZ_4bi6Vjsg-18" target="Ffj2G7Qw7KZ_4bi6Vjsg-16">
          <mxGeometry width="160" relative="1" as="geometry">
            <mxPoint x="430" y="590" as="sourcePoint" />
            <mxPoint x="590" y="590" as="targetPoint" />
          </mxGeometry>
        </mxCell>
        <mxCell id="Ffj2G7Qw7KZ_4bi6Vjsg-40" value="" style="endArrow=none;html=1;rounded=0;" edge="1" parent="1">
          <mxGeometry width="50" height="50" relative="1" as="geometry">
            <mxPoint x="540" y="540" as="sourcePoint" />
            <mxPoint x="540" y="340" as="targetPoint" />
          </mxGeometry>
        </mxCell>
        <mxCell id="Ffj2G7Qw7KZ_4bi6Vjsg-42" value="" style="endArrow=none;html=1;rounded=0;exitX=1;exitY=0.5;exitDx=0;exitDy=0;" edge="1" parent="1" source="Ffj2G7Qw7KZ_4bi6Vjsg-16">
          <mxGeometry width="50" height="50" relative="1" as="geometry">
            <mxPoint x="620" y="670" as="sourcePoint" />
            <mxPoint x="540" y="517" as="targetPoint" />
          </mxGeometry>
        </mxCell>
        <mxCell id="Ffj2G7Qw7KZ_4bi6Vjsg-43" value="" style="endArrow=none;html=1;rounded=0;exitX=1;exitY=0.5;exitDx=0;exitDy=0;" edge="1" parent="1" source="Ffj2G7Qw7KZ_4bi6Vjsg-18">
          <mxGeometry width="50" height="50" relative="1" as="geometry">
            <mxPoint x="390" y="460" as="sourcePoint" />
            <mxPoint x="540" y="431" as="targetPoint" />
          </mxGeometry>
        </mxCell>
        <mxCell id="Ffj2G7Qw7KZ_4bi6Vjsg-44" value="" style="endArrow=none;html=1;rounded=0;exitX=1;exitY=0.5;exitDx=0;exitDy=0;" edge="1" parent="1" source="Ffj2G7Qw7KZ_4bi6Vjsg-2">
          <mxGeometry width="50" height="50" relative="1" as="geometry">
            <mxPoint x="700" y="640" as="sourcePoint" />
            <mxPoint x="540" y="357" as="targetPoint" />
          </mxGeometry>
        </mxCell>
        <mxCell id="Ffj2G7Qw7KZ_4bi6Vjsg-45" value="" style="endArrow=open;endFill=1;endSize=12;html=1;rounded=0;entryX=0;entryY=0.5;entryDx=0;entryDy=0;" edge="1" parent="1" target="Ffj2G7Qw7KZ_4bi6Vjsg-14">
          <mxGeometry width="160" relative="1" as="geometry">
            <mxPoint x="540" y="430" as="sourcePoint" />
            <mxPoint x="800" y="490" as="targetPoint" />
          </mxGeometry>
        </mxCell>
      </root>
    </mxGraphModel>
  </diagram>
</mxfile>
